<svg xmlns="http://www.w3.org/2000/svg" viewBox="0 0 557.09 116.00">
  <g transform="translate(8.0,8.0) scale(1.4815) translate(-11,-10)"><path fill="#000" d="M 11.00 77.50 L 16.99 67.14 L 22.97 77.50 Z M 19.91 62.08 L 29.04 46.28 L 47.08 77.50 L 28.82 77.50 Z M 31.96 41.22 L 50.00 10.00 L 89.00 77.50 L 52.92 77.50 Z"/></g>
  <g transform="translate(155.56,28.00) scale(0.7754) translate(-7.75,73.50)"><path fill="#000" d="M7.75 -70.0V0.0H19.625V-70.0ZM14.825000000000001 -59.625H28.875Q35.0 -59.625 38.712500000000006 -56.7625Q42.425000000000004 -53.900000000000006 42.425000000000004 -48.25Q42.425000000000004 -42.675000000000004 38.712500000000006 -39.775000000000006Q35.0 -36.875 28.875 -36.875H14.825000000000001V-26.5H28.875Q36.550000000000004 -26.5 42.175000000000004 -29.137500000000003Q47.800000000000004 -31.775000000000002 50.925000000000004 -36.6875Q54.050000000000004 -41.6 54.050000000000004 -48.25Q54.050000000000004 -55.0 50.925000000000004 -59.862500000000004Q47.800000000000004 -64.72500000000001 42.175000000000004 -67.36250000000001Q36.550000000000004 -70.0 28.875 -70.0H14.825000000000001Z M96.05000000000001 -33.375 118.30000000000001 0.0H132.55L108.80000000000001 -33.375ZM81.55000000000001 -70.0V0.0H93.42500000000001V-70.0ZM88.62500000000001 -59.75H102.67500000000001Q106.75000000000001 -59.75 109.78750000000002 -58.3625Q112.82500000000002 -56.975 114.52500000000002 -54.3625Q116.22500000000002 -51.75 116.22500000000002 -48.0Q116.22500000000002 -44.275000000000006 114.52500000000002 -41.650000000000006Q112.82500000000002 -39.025000000000006 109.78750000000002 -37.6375Q106.75000000000001 -36.25 102.67500000000001 -36.25H88.62500000000001V-26.5H103.17500000000001Q110.85000000000002 -26.5 116.47500000000002 -29.1875Q122.10000000000002 -31.875 125.22500000000002 -36.8Q128.35000000000002 -41.725 128.35000000000002 -48.25Q128.35000000000002 -54.875 125.22500000000002 -59.75Q122.10000000000002 -64.625 116.47500000000002 -67.3125Q110.85000000000002 -70.0 103.17500000000001 -70.0H88.62500000000001Z M157.05 -70.0V0.0H169.05V-70.0Z M213.60000000000002 -42.625 234.925 -6.5 256.25 -42.625 261.05 0.0H273.3L263.675 -73.5L234.925 -26.025000000000002L206.175 -73.5L196.55 0.0H208.8Z M300.85 -70.0V0.0H312.85V-70.0Z M337.35 -59.125H355.85V0.0H367.725V-59.125H386.225V-70.0H337.35Z M410.75 -70.0V0.0H422.75V-70.0Z M481.0 -20.8 460.375 -70.0H446.75L481.0 3.875L515.25 -70.0H501.625Z"/></g>
</svg>
