<svg xmlns="http://www.w3.org/2000/svg" viewBox="0 0 593.00 116.00">
  <g transform="translate(8.0,8.0) scale(1.4815) translate(-11,-10)"><path fill="#000" fill-rule="evenodd" d="M 50.00 10.00 L 11.00 77.50 L 89.00 77.50 Z M 50.00 30.25 L 28.55 67.38 L 71.45 67.38 Z M 50.00 40.38 L 37.33 62.31 L 62.67 62.31 Z"/></g>
  <g transform="translate(155.56,28.00) scale(0.7754) translate(-7.75,73.88)"><path fill="#000" d="M12.450000000000001 -32.125H62.45V-43.0H12.450000000000001ZM54.75 -70.0V0.0H66.625V-70.0ZM7.75 -70.0V0.0H19.625V-70.0Z M106.60000000000001 -18.0H143.60000000000002L141.35000000000002 -27.950000000000003H108.85000000000001ZM124.9 -50.2 136.05 -24.225 136.275 -21.3 145.775 0.0H159.15L124.9 -73.875L90.65 0.0H104.025L113.72500000000001 -21.925L113.9 -24.525000000000002Z M197.65 -33.375 219.9 0.0H234.15L210.4 -33.375ZM183.15 -70.0V0.0H195.025V-70.0ZM190.225 -59.75H204.275Q208.35000000000002 -59.75 211.38750000000002 -58.3625Q214.425 -56.975 216.125 -54.3625Q217.82500000000002 -51.75 217.82500000000002 -48.0Q217.82500000000002 -44.275000000000006 216.125 -41.650000000000006Q214.425 -39.025000000000006 211.38750000000002 -37.6375Q208.35000000000002 -36.25 204.275 -36.25H190.225V-26.5H204.775Q212.45000000000002 -26.5 218.07500000000002 -29.1875Q223.70000000000002 -31.875 226.82500000000002 -36.8Q229.95000000000002 -41.725 229.95000000000002 -48.25Q229.95000000000002 -54.875 226.82500000000002 -59.75Q223.70000000000002 -64.625 218.07500000000002 -67.3125Q212.45000000000002 -70.0 204.775 -70.0H190.225Z M271.7 -42.625 293.025 -6.5 314.35 -42.625 319.15 0.0H331.4L321.775 -73.5L293.025 -26.025000000000002L264.275 -73.5L254.65 0.0H266.9Z M367.52500000000003 -35.0Q367.52500000000003 -42.225 370.58750000000003 -47.837500000000006Q373.65000000000003 -53.45 379.02500000000003 -56.6875Q384.40000000000003 -59.925000000000004 391.32500000000005 -59.925000000000004Q398.40000000000003 -59.925000000000004 403.725 -56.6875Q409.05000000000007 -53.45 412.0875000000001 -47.837500000000006Q415.12500000000006 -42.225 415.12500000000006 -35.0Q415.12500000000006 -27.8 412.06250000000006 -22.175Q409.00000000000006 -16.55 403.6625 -13.3125Q398.32500000000005 -10.075000000000001 391.32500000000005 -10.075000000000001Q384.40000000000003 -10.075000000000001 379.02500000000003 -13.3125Q373.65000000000003 -16.55 370.58750000000003 -22.175Q367.52500000000003 -27.8 367.52500000000003 -35.0ZM354.95000000000005 -35.0Q354.95000000000005 -27.200000000000003 357.65000000000003 -20.512500000000003Q360.35 -13.825000000000001 365.25 -8.912500000000001Q370.15000000000003 -4.0 376.8125 -1.25Q383.475 1.5 391.32500000000005 1.5Q399.25000000000006 1.5 405.87500000000006 -1.25Q412.50000000000006 -4.0 417.4000000000001 -8.912500000000001Q422.30000000000007 -13.825000000000001 425.00000000000006 -20.512500000000003Q427.70000000000005 -27.200000000000003 427.70000000000005 -35.0Q427.70000000000005 -42.875 424.98750000000007 -49.4875Q422.27500000000003 -56.1 417.35 -60.962500000000006Q412.42500000000007 -65.825 405.81250000000006 -68.5375Q399.20000000000005 -71.25 391.32500000000005 -71.25Q383.57500000000005 -71.25 376.92500000000007 -68.5375Q370.27500000000003 -65.825 365.35 -60.962500000000006Q360.42500000000007 -56.1 357.68750000000006 -49.4875Q354.95000000000005 -42.875 354.95000000000005 -35.0Z M506.37500000000006 -70.0V-23.0L455.25000000000006 -73.5V0.0H466.87500000000006V-47.0L518.0 3.5V-70.0Z M549.5500000000001 -70.0V0.0H561.5500000000001V-70.0Z"/></g>
</svg>
