<svg xmlns="http://www.w3.org/2000/svg" width="24" height="24" fill="none" viewBox="0 0 24 24">
  <path fill="#000" d="M10.75 7.25v1.5H4c-.053 0-.233.029-.44.492-.194.438-.31 1.076-.31 1.758 0 .682.116 1.32.31 1.758.207.463.387.492.44.492h6.75v1.5H4c-.947 0-1.517-.721-1.81-1.383-.306-.687-.44-1.549-.44-2.367 0-.818.134-1.68.44-2.367C2.482 7.97 3.052 7.25 4 7.25h6.75Zm9.25 2c.947 0 1.517.721 1.81 1.383.306.687.44 1.549.44 2.367 0 .818-.134 1.68-.44 2.367-.293.662-.863 1.383-1.81 1.383h-6.75v-1.5H20c.053 0 .233-.029.44-.492.194-.438.31-1.076.31-1.758 0-.682-.116-1.32-.31-1.758-.207-.463-.387-.492-.44-.492h-6.75v-1.5H20Z"/>
  <path fill="#000" d="M16.75 11.25v1.5h-9.5v-1.5h9.5Z"/>
</svg>
