<svg xmlns="http://www.w3.org/2000/svg" width="24" height="24" fill="none" viewBox="0 0 24 24">
  <path fill="#000" d="M8.25 12a2.25 2.25 0 1 0-4.5 0 2.25 2.25 0 0 0 4.5 0Zm1.5 0a3.75 3.75 0 1 1-7.5 0 3.75 3.75 0 0 1 7.5 0Zm10.5-6a2.25 2.25 0 1 0-4.5 0 2.25 2.25 0 0 0 4.5 0Zm1.5 0a3.75 3.75 0 1 1-7.5 0 3.75 3.75 0 0 1 7.5 0Zm-1.5 12a2.25 2.25 0 1 0-4.5 0 2.25 2.25 0 0 0 4.5 0Zm1.5 0a3.75 3.75 0 1 1-7.5 0 3.75 3.75 0 0 1 7.5 0Z"/>
  <path fill="#000" d="m15.91 7.335-7.414 4.17-.596-1.34 7.414-4.17.596 1.34Zm0 9.33-.596 1.34-7.414-4.17.596-1.34 7.414 4.17Z"/>
</svg>
